<?xml version="1.0" encoding="utf-8"?>
<!-- Generator: Adobe Illustrator 25.1.0, SVG Export Plug-In . SVG Version: 6.00 Build 0)  -->
<svg version="1.1" xmlns="http://www.w3.org/2000/svg" xmlns:xlink="http://www.w3.org/1999/xlink" x="0px" y="0px"
	 viewBox="0 0 32 32" style="enable-background:new 0 0 32 32;" xml:space="preserve">
<style type="text/css">
	.st0{display:none;}
	.st1{display:inline;}
	.st2{fill:#AAFFE6;}
	.st3{fill:#C3EFFF;}
	.st4{fill:#031F30;}
	.st5{fill:none;stroke:#000000;stroke-width:2;stroke-linecap:round;stroke-linejoin:round;stroke-miterlimit:10;}
	.st6{fill:none;stroke:#000000;stroke-width:2;stroke-linecap:round;stroke-miterlimit:10;}
	.st7{fill:none;stroke:#000000;stroke-width:2;stroke-miterlimit:10;}
	.st8{fill:none;stroke:#000000;stroke-width:2;stroke-linejoin:round;stroke-miterlimit:10;}
	.st9{fill:#FFFFFF;}
	.st10{fill:#0000FF;}
	.st11{fill:none;}
	.st12{display:inline;fill:none;}
	.st13{display:inline;fill:none;stroke:#FFFFFF;stroke-width:2;stroke-linecap:round;stroke-linejoin:round;stroke-miterlimit:10;}
	.st14{display:inline;fill:none;stroke:#FFFFFF;stroke-linecap:round;stroke-linejoin:round;stroke-miterlimit:10;}
	.st15{display:inline;fill:none;stroke:#000000;stroke-width:2;stroke-linecap:round;stroke-miterlimit:10;}
	.st16{fill:none;stroke:#FFFFFF;stroke-width:2;stroke-linecap:round;stroke-linejoin:round;stroke-miterlimit:10;}
	.st17{display:inline;fill:#FFFFFF;}
	.st18{display:inline;fill:none;stroke:#000000;stroke-width:2;stroke-linejoin:round;stroke-miterlimit:10;}
	.st19{display:inline;fill:none;stroke:#000000;stroke-width:2;stroke-linecap:round;stroke-linejoin:round;stroke-miterlimit:10;}
	.st20{display:inline;fill:none;stroke:#FFFFFF;stroke-miterlimit:10;}
	.st21{display:inline;fill:none;stroke:#FF0000;stroke-width:2;stroke-linecap:round;stroke-miterlimit:10;}
	.st22{fill:none;stroke:#0000FF;stroke-width:0.02;stroke-miterlimit:10;}
	.st23{display:inline;fill:#0000FF;}
</style>
<g id="Name" class="st0">
</g>
<g id="Padding" class="st0">
	<g class="st1">
		<path class="st2" d="M30,2v28H2V2H30 M32,0H0v32h32V0L32,0z"/>
	</g>
</g>
<g id="Line_Units" class="st0">
	<g class="st1">
		<rect x="2" y="2" class="st3" width="2" height="2"/>
		<rect x="6" y="2" class="st3" width="2" height="2"/>
		<rect x="10" y="2" class="st3" width="2" height="2"/>
		<rect x="14" y="2" class="st3" width="2" height="2"/>
		<rect x="18" y="2" class="st3" width="2" height="2"/>
		<rect x="22" y="2" class="st3" width="2" height="2"/>
		<rect x="26" y="2" class="st3" width="2" height="2"/>
		<rect x="4" y="4" class="st3" width="2" height="2"/>
		<rect x="8" y="4" class="st3" width="2" height="2"/>
		<rect x="12" y="4" class="st3" width="2" height="2"/>
		<rect x="16" y="4" class="st3" width="2" height="2"/>
		<rect x="20" y="4" class="st3" width="2" height="2"/>
		<rect x="24" y="4" class="st3" width="2" height="2"/>
		<rect x="28" y="4" class="st3" width="2" height="2"/>
		<rect x="2" y="6" class="st3" width="2" height="2"/>
		<rect x="6" y="6" class="st3" width="2" height="2"/>
		<rect x="10" y="6" class="st3" width="2" height="2"/>
		<rect x="14" y="6" class="st3" width="2" height="2"/>
		<rect x="18" y="6" class="st3" width="2" height="2"/>
		<rect x="22" y="6" class="st3" width="2" height="2"/>
		<rect x="26" y="6" class="st3" width="2" height="2"/>
		<rect x="4" y="8" class="st3" width="2" height="2"/>
		<rect x="8" y="8" class="st3" width="2" height="2"/>
		<rect x="12" y="8" class="st3" width="2" height="2"/>
		<rect x="16" y="8" class="st3" width="2" height="2"/>
		<rect x="20" y="8" class="st3" width="2" height="2"/>
		<rect x="24" y="8" class="st3" width="2" height="2"/>
		<rect x="28" y="8" class="st3" width="2" height="2"/>
		<rect x="2" y="10" class="st3" width="2" height="2"/>
		<rect x="6" y="10" class="st3" width="2" height="2"/>
		<rect x="10" y="10" class="st3" width="2" height="2"/>
		<rect x="14" y="10" class="st3" width="2" height="2"/>
		<rect x="18" y="10" class="st3" width="2" height="2"/>
		<rect x="22" y="10" class="st3" width="2" height="2"/>
		<rect x="26" y="10" class="st3" width="2" height="2"/>
		<rect x="4" y="12" class="st3" width="2" height="2"/>
		<rect x="8" y="12" class="st3" width="2" height="2"/>
		<rect x="12" y="12" class="st3" width="2" height="2"/>
		<rect x="16" y="12" class="st3" width="2" height="2"/>
		<rect x="20" y="12" class="st3" width="2" height="2"/>
		<rect x="24" y="12" class="st3" width="2" height="2"/>
		<rect x="28" y="12" class="st3" width="2" height="2"/>
		<rect x="2" y="14" class="st3" width="2" height="2"/>
		<rect x="6" y="14" class="st3" width="2" height="2"/>
		<rect x="10" y="14" class="st3" width="2" height="2"/>
		<rect x="14" y="14" class="st3" width="2" height="2"/>
		<rect x="18" y="14" class="st3" width="2" height="2"/>
		<rect x="22" y="14" class="st3" width="2" height="2"/>
		<rect x="26" y="14" class="st3" width="2" height="2"/>
		<rect x="4" y="16" class="st3" width="2" height="2"/>
		<rect x="8" y="16" class="st3" width="2" height="2"/>
		<rect x="12" y="16" class="st3" width="2" height="2"/>
		<rect x="16" y="16" class="st3" width="2" height="2"/>
		<rect x="20" y="16" class="st3" width="2" height="2"/>
		<rect x="24" y="16" class="st3" width="2" height="2"/>
		<rect x="28" y="16" class="st3" width="2" height="2"/>
		<rect x="2" y="18" class="st3" width="2" height="2"/>
		<rect x="6" y="18" class="st3" width="2" height="2"/>
		<rect x="10" y="18" class="st3" width="2" height="2"/>
		<rect x="14" y="18" class="st3" width="2" height="2"/>
		<rect x="18" y="18" class="st3" width="2" height="2"/>
		<rect x="22" y="18" class="st3" width="2" height="2"/>
		<rect x="26" y="18" class="st3" width="2" height="2"/>
		<rect x="4" y="20" class="st3" width="2" height="2"/>
		<rect x="8" y="20" class="st3" width="2" height="2"/>
		<rect x="12" y="20" class="st3" width="2" height="2"/>
		<rect x="16" y="20" class="st3" width="2" height="2"/>
		<rect x="20" y="20" class="st3" width="2" height="2"/>
		<rect x="24" y="20" class="st3" width="2" height="2"/>
		<rect x="28" y="20" class="st3" width="2" height="2"/>
		<rect x="2" y="22" class="st3" width="2" height="2"/>
		<rect x="6" y="22" class="st3" width="2" height="2"/>
		<rect x="10" y="22" class="st3" width="2" height="2"/>
		<rect x="14" y="22" class="st3" width="2" height="2"/>
		<rect x="18" y="22" class="st3" width="2" height="2"/>
		<rect x="22" y="22" class="st3" width="2" height="2"/>
		<rect x="26" y="22" class="st3" width="2" height="2"/>
		<rect x="4" y="24" class="st3" width="2" height="2"/>
		<rect x="8" y="24" class="st3" width="2" height="2"/>
		<rect x="12" y="24" class="st3" width="2" height="2"/>
		<rect x="16" y="24" class="st3" width="2" height="2"/>
		<rect x="20" y="24" class="st3" width="2" height="2"/>
		<rect x="24" y="24" class="st3" width="2" height="2"/>
		<rect x="28" y="24" class="st3" width="2" height="2"/>
		<rect x="2" y="26" class="st3" width="2" height="2"/>
		<rect x="6" y="26" class="st3" width="2" height="2"/>
		<rect x="10" y="26" class="st3" width="2" height="2"/>
		<rect x="14" y="26" class="st3" width="2" height="2"/>
		<rect x="18" y="26" class="st3" width="2" height="2"/>
		<rect x="22" y="26" class="st3" width="2" height="2"/>
		<rect x="26" y="26" class="st3" width="2" height="2"/>
		<rect x="4" y="28" class="st3" width="2" height="2"/>
		<rect x="8" y="28" class="st3" width="2" height="2"/>
		<rect x="12" y="28" class="st3" width="2" height="2"/>
		<rect x="16" y="28" class="st3" width="2" height="2"/>
		<rect x="20" y="28" class="st3" width="2" height="2"/>
		<rect x="24" y="28" class="st3" width="2" height="2"/>
		<rect x="28" y="28" class="st3" width="2" height="2"/>
	</g>
</g>
<g id="Stroke">
	<g>
		<path class="st4" d="M11.63,7.96L6.29,13.3c-0.39,0.39-0.39,1.02,0,1.41C6.49,14.91,6.74,15,7,15s0.51-0.1,0.71-0.29l5.34-5.34
			c0.39-0.39,0.39-1.02,0-1.41S12.02,7.57,11.63,7.96z"/>
		<path class="st4" d="M16.71,4.29c-0.29-0.29-0.72-0.37-1.09-0.22C15.25,4.23,15,4.6,15,5l0,22c0,0.55,0.45,1,1,1s1-0.45,1-1
			l0-19.59l7.29,7.29c0.39,0.39,1.02,0.39,1.41,0s0.39-1.02,0-1.41L16.71,4.29z"/>
	</g>
</g>
<g id="Pictogram" class="st0">
</g>
<g id="_x33_2x32_Shape" class="st0">
	<rect class="st12" width="32" height="32"/>
</g>
<g id="Master_Shapes" class="st0">
	<g class="st1">
		<rect x="2" y="6" transform="matrix(-1.836970e-16 1 -1 -1.836970e-16 32 1.201994e-06)" class="st22" width="28" height="20"/>
		<rect x="2" y="6" class="st22" width="28" height="20"/>
		<rect x="4" y="4" class="st22" width="24" height="24"/>
		<circle class="st22" cx="16" cy="16" r="14"/>
	</g>
</g>
</svg>
