<svg width="20" height="20" viewBox="0 0 20 20" fill="none" xmlns="http://www.w3.org/2000/svg">
<path d="M10.8081 15.1831C10.564 15.4271 10.564 15.8229 10.8081 16.0669C11.0521 16.311 11.4479 16.311 11.6919 16.0669L15.0253 12.7336C15.2694 12.4895 15.2694 12.0938 15.0253 11.8497C14.7812 11.6056 14.3855 11.6056 14.1414 11.8497L10.8081 15.1831Z" fill="#3B3071"/>
<path d="M16.875 10.625C17.1278 10.625 17.3557 10.4727 17.4524 10.2392C17.5491 10.0056 17.4957 9.73681 17.3169 9.55806L11.6919 3.93306C11.4478 3.68898 11.0521 3.68898 10.808 3.93306C10.564 4.17714 10.564 4.57286 10.808 4.81694L15.3661 9.375L3.12498 9.375C2.7798 9.375 2.49998 9.65482 2.49998 10C2.49998 10.3452 2.7798 10.625 3.12498 10.625L16.875 10.625Z" fill="#3B3071"/>
</svg>
