<svg width="19" height="18" viewBox="0 0 19 18" fill="none" xmlns="http://www.w3.org/2000/svg">
<path d="M14.011 6.94194C14.2551 6.69786 14.2551 6.30214 14.011 6.05806C13.7669 5.81398 13.3712 5.81398 13.1271 6.05806L8.56908 10.6161L6.37944 8.42648C6.13536 8.1824 5.73964 8.1824 5.49556 8.42648C5.25148 8.67056 5.25148 9.06629 5.49556 9.31036L8.12714 11.9419C8.37121 12.186 8.76694 12.186 9.01102 11.9419L14.011 6.94194Z" fill="#6C47CF"/>
<path fill-rule="evenodd" clip-rule="evenodd" d="M18.4375 9C18.4375 13.8325 14.52 17.75 9.6875 17.75C4.85501 17.75 0.9375 13.8325 0.9375 9C0.9375 4.16751 4.85501 0.25 9.6875 0.25C14.52 0.25 18.4375 4.16751 18.4375 9ZM17.1875 9C17.1875 13.1421 13.8296 16.5 9.6875 16.5C5.54536 16.5 2.1875 13.1421 2.1875 9C2.1875 4.85786 5.54536 1.5 9.6875 1.5C13.8296 1.5 17.1875 4.85786 17.1875 9Z" fill="#6C47CF"/>
</svg>
